<svg class="u-hidden" xmlns="http://www.w3.org/2000/svg">
    <symbol id="jukebox-arrow-down" viewBox="0 0 640 640">
        <path d="M288 517.504L93.728 323.232 48.48 368.48 320 640l271.52-271.52-45.248-45.248L352 517.504V0h-64z" fill="currentColor"></path>
    </symbol>
    <symbol id="jukebox-arrow-left" viewBox="0 0 640 640">
        <path d="M122.496 288L316.768 93.728 271.52 48.48 0 320l271.52 271.52 45.248-45.248L122.496 352H640v-64H122.496z" fill="currentColor"></path>
    </symbol>
    <symbol id="jukebox-arrow-right" viewBox="0 0 640 640">
        <path d="M517.504 288L323.232 93.728 368.48 48.48 640 320 368.48 591.52l-45.248-45.248L517.504 352H0v-64z" fill="currentColor"></path>
    </symbol>
    <symbol id="jukebox-arrow-up" viewBox="0 0 640 640">
        <path d="M288 122.496L93.728 316.768 48.48 271.52 320 0l271.52 271.52-45.248 45.248L352 122.496V640h-64V122.496z" fill="currentColor"></path>
    </symbol>
    <symbol id="jukebox-burger" viewBox="0 0 768 768">
        <path d="M96 192h576v64.5H96V192zm0 223.5v-63h576v63H96zM96 576v-64.5h576V576H96z" fill="currentColor"></path>
    </symbol>
    <symbol id="jukebox-camera" viewBox="0 0 20 20">
        <circle fill="none" stroke="currentColor" stroke-width="1.1" cx="10" cy="10.8" r="3.8"></circle><path fill="none" stroke="currentColor" d="M1 4.5c-.3 0-.5.2-.5.5v12c0 .3.2.5.5.5h18c.3 0 .5-.2.5-.5V5c0-.3-.2-.5-.5-.5h-5.5V2.9c0-.3-.2-.4-.5-.4H7c-.3 0-.5.1-.5.4v1.6H1z"></path>
    </symbol>
    <symbol id="jukebox-cancel" viewBox="0 0 1024 1024">
        <path d="M512 928C282.24 928 96 741.76 96 512S282.24 96 512 96s416 186.24 416 416-186.24 416-416 416zm190.752-537.312c7.808-7.808 7.808-20.512 0-28.32l-42.496-42.464c-7.808-7.808-20.512-7.808-28.32 0L511.584 440.256 391.232 319.904c-7.808-7.808-20.512-7.808-28.32 0l-42.496 42.464c-7.808 7.808-7.808 20.512 0 28.32L440.8 511.072l-120.384 120.32c-7.808 7.808-7.808 20.512 0 28.32l42.496 42.496c7.808 7.808 20.512 7.808 28.32 0l120.352-120.384 120.352 120.384c7.808 7.808 20.512 7.808 28.32 0l42.496-42.496c7.808-7.808 7.808-20.512 0-28.32l-120.384-120.32 120.384-120.384z" fill="currentColor"></path>
    </symbol>
    <symbol id="jukebox-caret-down" viewBox="0 0 768 768">
        <path d="M237 250.5l147 147 147-147 45 45-192 192-192-192z" fill="currentColor"></path>
    </symbol>
    <symbol id="jukebox-caret-left" viewBox="0 0 768 768">
        <path d="M493.5 514.5l-45 45-192-192 192-192 45 45-147 147z" fill="currentColor"></path>
    </symbol>
    <symbol id="jukebox-caret-right" viewBox="0 0 768 768">
        <path d="M274.5 523.5l147-147-147-147 45-45 192 192-192 192z" fill="currentColor"></path>
    </symbol>
    <symbol id="jukebox-caret-up" viewBox="0 0 768 768">
        <path d="M237 493.5l-45-45 192-192 192 192-45 45-147-147z" fill="currentColor"></path>
    </symbol>
    <symbol id="jukebox-checkmark" viewBox="0 0 1024 1024">
        <path d="M512 96C282.24 96 96 282.24 96 512s186.24 416 416 416 416-186.24 416-416S741.76 96 512 96zm232.256 297.824l-303.552 303.52c-7.616 7.584-19.936 7.584-27.552 0l-6.112-6.112-.032.032L240 523.072c-7.616-7.616-7.616-19.968 0-27.584l41.408-41.376c7.616-7.616 19.968-7.616 27.584 0L427.04 573.024l248.192-248.192c7.616-7.616 19.968-7.616 27.584 0l41.408 41.408c7.648 7.584 7.648 19.936.032 27.584z" fill="currentColor"></path>
    </symbol>
    <symbol id="jukebox-clock" viewBox="0 0 20 20">
        <circle fill="none" stroke="currentColor" stroke-width="1.1" cx="10" cy="10" r="9"></circle><path d="M9 4h1v7H9z" fill="currentColor"></path><path fill="none" stroke="currentColor" stroke-width="1.1" d="M13.018 14.197l-3.573-3.572"></path>
    </symbol>
    <symbol id="jukebox-close" viewBox="0 0 20 20">
        <path fill="none" stroke="currentColor" stroke-width="1.06" d="M16 16L4 4m12 0L4 16"></path>
    </symbol>
    <symbol id="jukebox-cloud-download" viewBox="0 0 20 20">
        <path fill="none" stroke="currentColor" stroke-width="1.1" d="M6.5 14.61H3.75C1.96 14.61.5 13.17.5 11.39c0-1.63 1.22-2.98 2.8-3.19C3.38 5.31 5.75 3 8.68 3c2.51 0 4.63 1.71 5.21 4.02.5-.22 1.04-.34 1.61-.34 2.21 0 4 1.77 4 3.96s-1.79 3.96-4 3.96h-3"></path><path fill="none" stroke="currentColor" d="M11.75 16L9.5 18.25 7.25 16m2.25 2V9.5"></path>
    </symbol>
    <symbol id="jukebox-cloud-upload" viewBox="0 0 20 20">
        <path fill="none" stroke="currentColor" stroke-width="1.1" d="M6.5 14.61H3.75C1.96 14.61.5 13.17.5 11.39c0-1.63 1.22-2.98 2.81-3.19C3.38 5.31 5.75 3 8.68 3c2.51 0 4.63 1.71 5.21 4.02.5-.22 1.04-.34 1.61-.34 2.21 0 4 1.77 4 3.96s-1.79 3.96-4 3.96h-3"></path><path fill="none" stroke="currentColor" d="M7.25 11.75L9.5 9.5l2.25 2.25M9.5 18V9.5"></path>
    </symbol>
    <symbol id="jukebox-code" viewBox="0 0 24 24">
        <path d="M14.578 16.594L19.219 12l-4.641-4.594L15.984 6l6 6-6 6zm-5.156 0L8.016 18l-6-6 6-6 1.406 1.406L4.781 12z" fill="currentColor"></path>
    </symbol>
    <symbol id="jukebox-cog" viewBox="0 0 768 768">
        <path d="M384 496.5c61.5 0 112.5-51 112.5-112.5s-51-112.5-112.5-112.5-112.5 51-112.5 112.5 51 112.5 112.5 112.5zm238.5-81L690 468c6 4.5 7.5 13.5 3 21l-64.5 111c-4.5 7.5-12 9-19.5 6l-79.5-31.5c-16.5 12-34.5 24-54 31.5l-12 84c-1.5 7.5-7.5 13.5-15 13.5h-129c-7.5 0-13.5-6-15-13.5l-12-84c-19.5-7.5-37.5-18-54-31.5L159 606c-7.5 3-15 1.5-19.5-6L75 489c-4.5-7.5-3-16.5 3-21l67.5-52.5c-1.5-10.5-1.5-21-1.5-31.5s0-21 1.5-31.5L78 300c-6-4.5-7.5-13.5-3-21l64.5-111c4.5-7.5 12-9 19.5-6l79.5 31.5c16.5-12 34.5-24 54-31.5l12-84c1.5-7.5 7.5-13.5 15-13.5h129c7.5 0 13.5 6 15 13.5l12 84c19.5 7.5 37.5 18 54 31.5L609 162c7.5-3 15-1.5 19.5 6L693 279c4.5 7.5 3 16.5-3 21l-67.5 52.5c1.5 10.5 1.5 21 1.5 31.5s0 21-1.5 31.5z" fill="currentColor"></path>
    </symbol>
    <symbol id="jukebox-copy" viewBox="0 0 20 20">
        <path fill="none" stroke="currentColor" d="M3.5 2.5h12v16h-12z"></path><path fill="none" stroke="currentColor" d="M5 .5h12.5V17"></path>
    </symbol>
    <symbol id="jukebox-download" viewBox="0 0 20 20">
        <path fill="none" stroke="currentColor" d="M14 10l-4.5 4.5L5 10"></path><path d="M3 17h13v1H3z" fill="currentColor"></path><path fill="none" stroke="currentColor" d="M9.5 13.91V3"></path>
    </symbol>
    <symbol id="jukebox-edit" viewBox="0 0 1024 1024">
        <path d="M341.792 582.624l-70.688 181.44 178.304-73.824-107.616-107.616zm517.568-387.52l-22.624-22.624c-24.96-24.992-65.504-24.992-90.496 0l-45.248 45.248 113.12 113.152 45.248-45.248c25.024-24.992 25.024-65.536 0-90.528zM345.376 573.376l16.192-16.192 113.12 113.12 316.8-316.8-113.12-113.12 22.624-22.656-355.616 355.648zm390.752 258.752l-544.832.192.096-544.832 381.472-.128L632.64 224H158.88c-17.664 0-32 14.304-32 32v608c0 17.696 14.336 32 32 32h608c17.696 0 32-14.304 32-32V414.144l-64.48 63.264 1.728 354.72z" fill="currentColor"></path>
    </symbol>
    <symbol id="jukebox-globe" viewBox="0 0 1024 1024">
        <path d="M496 64C239.744 64 32 271.744 32 528s207.744 464 464 464 464-207.744 464-464S752.256 64 496 64zm-151.936 59.328c-22.848 41.248-49.888 105.44-67.616 196.192H116.992c49.632-89.568 129.984-159.776 227.072-196.192zM100.928 351.584H271.04c-7.488 46.976-12.512 100.096-13.28 160.384H63.84c2.144-56.992 14.976-111.168 37.088-160.384zM63.616 544.032H257.92c.736 60.576 6.016 113.312 13.504 160.384h-169.28C79.936 655.04 65.728 601.248 63.616 544.032zM117.44 736.48h159.264c17.888 91.648 45.312 155.744 68.288 196.544C247.52 896.736 167.168 826.272 117.44 736.48zm364.544 223.808c-33.664-1.056-66.144-6.368-97.44-14.72-24.16-39.552-55.552-107.616-75.392-209.088h172.832v223.808zm0-255.872H303.488c-7.488-47.008-12.672-99.808-13.472-160.384h191.936v160.384zm0-192.448H289.856c.8-60.352 5.856-113.376 13.344-160.384h178.784v160.384zm0-192.448H308.48c19.68-100.736 50.912-168.512 75.008-208.8 31.584-8.512 64.48-13.92 98.496-15.04v223.84zm446.112 192.448H738.24c-.8-60.288-5.824-113.408-13.312-160.384h165.504c22.176 49.312 35.456 103.36 37.664 160.384zM874.304 319.52H719.52c-17.568-89.792-44.224-153.6-66.912-194.88 94.944 36.928 172.864 106.72 221.696 194.88zM514.016 95.648c34.144 1.504 67.264 6.912 98.944 15.776C636.992 151.84 668 219.328 687.552 319.52H514.016V95.648zm0 255.936H692.8c7.488 47.008 12.544 100.032 13.344 160.384H514.016V351.584zm0 192.448h191.936c-.736 60.576-5.984 113.376-13.472 160.384H514.016V544.032zm0 415.68V736.448H686.88c-19.744 100.864-50.912 168.672-74.976 208.384-31.296 8.704-64.16 13.376-97.888 14.88zm137.728-28.064c22.848-40.832 49.92-104.512 67.584-195.2h154.72c-48.704 88.512-126.944 158.4-222.304 195.2zM889.44 704.416H724.576c7.488-47.072 12.736-99.808 13.536-160.384h189.664c-2.144 57.184-16.256 110.976-38.336 160.384z" fill="currentColor"></path>
    </symbol>
    <symbol id="jukebox-home" viewBox="0 0 20 20">
        <path d="M18.65 11.35L10 2.71l-8.65 8.64-.7-.7L10 1.29l9.35 9.36zM15 4h3v3h-1V5h-2z" fill="currentColor"></path><path d="M3 11h1v7h3v-6h5v6h4v-7h1v8h-6v-6H8v6H3z" fill="currentColor"></path>
    </symbol>
    <symbol id="jukebox-lab" viewBox="0 0 32 32">
        <path d="M29.884 25.14L20 8.67V1.999h1c.55 0 1-.45 1-1s-.45-1-1-1H11c-.55 0-1 .45-1 1s.45 1 1 1h1V8.67L2.116 25.14C-.148 28.913 1.6 32 6 32h20c4.4 0 6.148-3.087 3.884-6.86zM7.532 20L14 9.221V2h4v7.221L24.468 20H7.533z" fill="currentColor"></path>
    </symbol>
    <symbol id="jukebox-locked" viewBox="0 0 20 20">
        <path fill="none" stroke="currentColor" d="M3.5 8.5h13v10h-13zm3-.5V4.88C6.5 3.01 8.07 1.5 10 1.5s3.5 1.51 3.5 3.38V8"></path>
    </symbol>
    <symbol id="jukebox-notice" viewBox="0 0 1024 1024">
        <path d="M496 112C266.24 112 80 298.24 80 528s186.24 416 416 416 416-186.24 416-416-186.24-416-416-416zm0 652c-26.528 0-48-21.504-48-48s21.472-48 48-48c26.496 0 48 21.504 48 48s-21.504 48-48 48zm48-208c0 26.496-21.504 48-48 48-26.528 0-48-21.504-48-48V332c0-26.528 21.472-48 48-48 26.496 0 48 21.472 48 48v224z" fill="currentColor"></path>
    </symbol>
    <symbol id="jukebox-paper-plane" viewBox="0 0 1024 1024">
        <path d="M107.616 141.248l156 619.136 302.944-96.576-270.336-329.536 348.864 305.92 283.296-88.64-820.768-410.304zm468.512 741.504V712.384l-99.712 29.632 99.712 140.736z" fill="currentColor"></path>
    </symbol>
    <symbol id="jukebox-pencil" viewBox="0 0 20 20">
        <path fill="none" stroke="currentColor" d="M17.25 6.01L7.12 16.1l-3.3 1.1 1.2-3.3 10.1-10.02c.59-.59 1.54-.59 2.13 0 .58.59.58 1.54 0 2.13zm-1.27 1.258l-2.129-2.12"></path>
    </symbol>
    <symbol id="jukebox-pictures" viewBox="0 0 1024 1024">
        <path d="M896 256v512c0 35.328-28.672 64-64 64H160c0 35.328 28.672 64 64 64h672c35.328 0 64-28.672 64-64V320c0-35.328-28.672-64-64-64zm-32 480V224c0-35.328-28.672-64-64-64H128c-35.328 0-64 28.672-64 64v512c0 35.328 28.672 64 64 64h672c35.328 0 64-28.672 64-64zM128 224h672v512H128V224zm372.064 329.952L404.448 452.16 308.8 615.488l-71.744-74.976-77.728 164.128h609.76L631.584 344.8l-131.52 209.152zM256 448c35.328 0 64-28.672 64-64s-28.672-64-64-64-64 28.672-64 64 28.672 64 64 64z" fill="currentColor"></path>
    </symbol>
    <symbol id="jukebox-social-facebook" viewBox="0 0 512 512">
        <path d="M304 96h80V0h-80c-61.757 0-112 50.243-112 112v48h-64v96h64v256h96V256h80l16-96h-96v-48c0-8.673 7.327-16 16-16z" fill="currentColor"></path>
    </symbol>
    <symbol id="jukebox-social-google" viewBox="0 0 512 512">
        <path d="M261.1 219.4v87.8h145.2c-5.9 37.7-43.9 110.4-145.2 110.4-87.4 0-158.7-72.4-158.7-161.6S173.7 94.4 261.1 94.4c49.7 0 83 21.2 102 39.5L432.6 67C388 25.2 330.2 0 261.1 0 119.6 0 5.1 114.5 5.1 256s114.5 256 256 256c147.7 0 245.8-103.9 245.8-250.1 0-16.8-1.8-29.6-4-42.4l-241.8-.1z" fill="currentColor"></path>
    </symbol>
    <symbol id="jukebox-social-instagram" viewBox="0 0 512 512">
        <path d="M256 46.1c68.4 0 76.5.3 103.4 1.5 25 1.1 38.5 5.3 47.5 8.8 11.9 4.6 20.5 10.2 29.4 19.1 9 9 14.5 17.5 19.2 29.4 3.5 9 7.7 22.6 8.8 47.5 1.2 27 1.5 35.1 1.5 103.4s-.3 76.5-1.5 103.4c-1.1 25-5.3 38.5-8.8 47.5-4.6 11.9-10.2 20.5-19.1 29.4-9 9-17.5 14.5-29.4 19.2-9 3.5-22.6 7.7-47.5 8.8-27 1.2-35.1 1.5-103.4 1.5s-76.5-.3-103.4-1.5c-25-1.1-38.5-5.3-47.5-8.8-11.9-4.6-20.5-10.2-29.4-19.1-9-9-14.5-17.5-19.2-29.4-3.5-9-7.7-22.6-8.8-47.5-1.2-27-1.5-35.1-1.5-103.4s.3-76.5 1.5-103.4c1.1-25 5.3-38.5 8.8-47.5 4.6-11.9 10.2-20.5 19.1-29.4 9-9 17.5-14.5 29.4-19.2 9-3.5 22.6-7.7 47.5-8.8 26.9-1.2 35-1.5 103.4-1.5zM256 0c-69.5 0-78.2.3-105.5 1.5-27.2 1.2-45.9 5.6-62.1 11.9C71.5 20 57.2 28.7 43 43 28.7 57.2 20 71.5 13.4 88.3c-6.3 16.3-10.7 34.9-11.9 62.1C.3 177.8 0 186.5 0 256s.3 78.2 1.5 105.5c1.2 27.2 5.6 45.9 11.9 62.1C20 440.5 28.7 454.8 43 469c14.2 14.2 28.5 23 45.3 29.5 16.3 6.3 34.9 10.7 62.1 11.9 27.3 1.2 36 1.5 105.5 1.5s78.2-.3 105.5-1.5c27.2-1.2 45.9-5.6 62.1-11.9 16.8-6.5 31.1-15.3 45.3-29.5s23-28.5 29.5-45.3c6.3-16.3 10.7-34.9 11.9-62.1 1.2-27.3 1.5-36 1.5-105.5s-.3-78.2-1.5-105.5c-1.2-27.2-5.6-45.9-11.9-62.1-6.3-17-15-31.3-29.3-45.5-14.2-14.2-28.5-23-45.3-29.5-16.3-6.3-34.9-10.7-62.1-11.9C334.2.3 325.5 0 256 0z" fill="currentColor"></path><path d="M256 124.5c-72.6 0-131.5 58.9-131.5 131.5S183.4 387.5 256 387.5 387.5 328.6 387.5 256 328.6 124.5 256 124.5zm0 216.8c-47.1 0-85.3-38.2-85.3-85.3s38.2-85.3 85.3-85.3c47.1 0 85.3 38.2 85.3 85.3s-38.2 85.3-85.3 85.3zm167.4-222c0 16.955-13.745 30.7-30.7 30.7S362 136.255 362 119.3s13.745-30.7 30.7-30.7 30.7 13.745 30.7 30.7z" fill="currentColor"></path>
    </symbol>
    <symbol id="jukebox-social-linkedin" viewBox="0 0 512 512">
        <path d="M192 192h88.553v45.391h1.266C294.139 215.294 324.298 192 369.24 192 462.713 192 480 250.188 480 325.867V480h-92.305V343.361c0-32.592-.667-74.513-48.014-74.513-48.074 0-55.41 35.493-55.41 72.146V480H192V192zm-160 0h96v288H32V192zm96-80c0 26.51-21.49 48-48 48s-48-21.49-48-48 21.49-48 48-48 48 21.49 48 48z" fill="currentColor"></path>
    </symbol>
    <symbol id="jukebox-social-twitter" viewBox="0 0 512 512">
        <path d="M512 113.2c-18.8 8.4-39.1 14-60.3 16.5 21.7-13 38.3-33.6 46.2-58.1-20.3 12-42.8 20.8-66.7 25.5C412 76.7 384.7 64 354.5 64c-58 0-105 47-105 105 0 8.2.9 16.2 2.7 23.9-87.3-4.4-164.7-46.2-216.5-109.8-9 15.5-14.2 33.6-14.2 52.8 0 36.4 18.5 68.6 46.7 87.4-17.2-.5-33.4-5.3-47.6-13.1v1.3c0 50.9 36.2 93.4 84.3 103-8.8 2.4-18.1 3.7-27.7 3.7-6.8 0-13.3-.7-19.8-1.9 13.4 41.7 52.2 72.1 98.1 73-36 28.2-81.2 45-130.5 45-8.5 0-16.8-.5-25.1-1.5C46.5 462.7 101.7 480 161 480c193.2 0 298.9-160.1 298.9-298.9 0-4.6-.1-9.1-.3-13.6 20.5-14.7 38.3-33.2 52.4-54.3z" fill="currentColor"></path>
    </symbol>
    <symbol id="jukebox-social-vimeo" viewBox="0 0 512 512">
        <path d="M511.8 137c-2.3 49.8-37.1 118.1-104.4 204.7-69.6 90.4-128.5 135.7-176.7 135.7-29.8 0-55.1-27.5-75.7-82.6-13.8-50.5-27.5-101-41.3-151.5-15.3-55.1-31.7-82.6-49.3-82.6-3.8 0-17.2 8.1-40.2 24.1l-24.1-31c25.3-22.2 50.2-44.4 74.7-66.6 33.7-29.1 59-44.4 75.9-46 39.8-3.8 64.4 23.4 73.6 81.7 9.9 62.9 16.8 102 20.7 117.3 11.5 52.2 24.1 78.3 37.9 78.3 10.7 0 26.8-16.9 48.3-50.8 21.4-33.8 32.9-59.6 34.5-77.3 3.1-29.2-8.4-43.9-34.5-43.9-12.3 0-24.9 2.8-37.9 8.4 25.2-82.4 73.2-122.4 144.2-120.1 52.5 1.4 77.3 35.5 74.3 102.2z" fill="currentColor"></path>
    </symbol>
    <symbol id="jukebox-social-youtube" viewBox="0 0 512 512">
        <path d="M506.9 153.6s-5-35.3-20.4-50.8c-19.5-20.4-41.3-20.5-51.3-21.7-71.6-5.2-179.1-5.2-179.1-5.2h-.2s-107.5 0-179.1 5.2c-10 1.2-31.8 1.3-51.3 21.7-15.4 15.5-20.3 50.8-20.3 50.8S.1 195 .1 236.5v38.8c0 41.4 5.1 82.9 5.1 82.9s5 35.3 20.3 50.8C45 429.4 70.6 428.7 82 430.9c41 3.9 174.1 5.1 174.1 5.1s107.6-.2 179.2-5.3c10-1.2 31.8-1.3 51.3-21.7 15.4-15.5 20.4-50.8 20.4-50.8s5.1-41.4 5.1-82.9v-38.8c-.1-41.4-5.2-82.9-5.2-82.9zM203.1 322.4V178.5l138.3 72.2-138.3 71.7z" fill="currentColor"></path>
    </symbol>
    <symbol id="jukebox-trash" viewBox="0 0 20 20">
        <path fill="none" stroke="currentColor" d="M6.5 3V1.5h7V3m-9 1v14.5h11V4"></path><path d="M8 7h1v9H8zm3 0h1v9h-1zM2 3h16v1H2z" fill="currentColor"></path>
    </symbol>
    <symbol id="jukebox-unlocked" viewBox="0 0 1024 1024">
        <path d="M928 480V336c0-97.216-78.816-176-176-176-97.216 0-176 78.784-176 176v146.272h160V992H0V480h480V320c0-141.376 114.592-256 256-256h32c141.376 0 256 114.624 256 256v160h-96zM368 606.016c-35.36 0-64 28.672-64 64 0 26.784 16.48 49.664 39.808 59.2L320 896h96l-23.84-166.816c23.328-9.536 39.84-32.416 39.84-59.2 0-35.328-28.672-63.968-64-63.968z" fill="currentColor"></path>
    </symbol>
    <symbol id="jukebox-upload" viewBox="0 0 20 20">
        <path fill="none" stroke="currentColor" d="M5 8l4.5-4.5L14 8"></path><path d="M3 17h13v1H3z" fill="currentColor"></path><path fill="none" stroke="currentColor" d="M9.5 15V4"></path>
    </symbol>
    <symbol id="jukebox-zoom" viewBox="0 0 768 768">
        <path d="M384 319.5h-64.5V384H288v-64.5h-64.5V288H288v-64.5h31.5V288H384v31.5zm-79.5 129c79.5 0 144-64.5 144-144s-64.5-144-144-144-144 64.5-144 144 64.5 144 144 144zm192 0l159 159-48 48-159-159V471l-9-9c-36 31.5-84 49.5-135 49.5C189 511.5 96 420 96 304.5S189 96 304.5 96s207 93 207 208.5c0 51-18 99-49.5 135l9 9h25.5z" fill="currentColor"></path>
    </symbol>
</svg>
